<svg xmlns="http://www.w3.org/2000/svg" viewBox="0 0 200 240" width="200" height="240">
  <defs>
    <clipPath id="shirt">
      <path d="M40,50 L20,65 L5,100 L30,110 L40,85 L40,200 C40,210 50,220 60,220 L140,220 C150,220 160,210 160,200 L160,85 L170,110 L195,100 L180,65 L160,50 L130,35 C125,55 75,55 70,35 Z"/>
    </clipPath>
  </defs>
  <!-- base blue shirt -->
  <path d="M40,50 L20,65 L5,100 L30,110 L40,85 L40,200 C40,210 50,220 60,220 L140,220 C150,220 160,210 160,200 L160,85 L170,110 L195,100 L180,65 L160,50 L130,35 C125,55 75,55 70,35 Z" fill="#003DA5" stroke="#333" stroke-width="1.5"/>
  <!-- yellow horizontal band -->
  <rect x="0" y="105" width="200" height="30" fill="#FFCD00" clip-path="url(#shirt)"/>
  <!-- collar -->
  <path d="M70,35 C75,55 125,55 130,35" fill="none" stroke="#333" stroke-width="1.5"/>
  <!-- year text -->
  <text x="100" y="165" text-anchor="middle" font-family="Arial,sans-serif" font-size="22" font-weight="bold" fill="#FFCD00">1981</text>
</svg>