<svg xmlns="http://www.w3.org/2000/svg" width="200" height="240" viewBox="0 0 200 240" fill="none">
  <!-- Jersey body -->
  <path d="M40 60 L20 80 L20 100 L35 95 L35 200 C35 210 45 220 60 220 L140 220 C155 220 165 210 165 200 L165 95 L180 100 L180 80 L160 60 L130 50 C125 65 110 75 100 75 C90 75 75 65 70 50 L40 60Z" fill="#E8E0D0" stroke="#7A1F1F" stroke-width="2"/>
  <!-- Collar -->
  <path d="M70 50 C75 65 90 75 100 75 C110 75 125 65 130 50" fill="none" stroke="#7A1F1F" stroke-width="2"/>
  <!-- Colombian flag stripe yellow -->
  <rect x="35" y="105" width="130" height="30" fill="#D4A017" opacity="0.5"/>
  <!-- Colombian flag stripe blue -->
  <rect x="35" y="135" width="130" height="15" fill="#003893" opacity="0.3"/>
  <!-- Colombian flag stripe red -->
  <rect x="35" y="150" width="130" height="15" fill="#7A1F1F" opacity="0.3"/>
  <!-- "Próximamente" text -->
  <text x="100" y="190" text-anchor="middle" font-family="sans-serif" font-size="11" font-weight="bold" fill="#7A1F1F" opacity="0.6">PRÓXIMAMENTE</text>
</svg>