<svg xmlns="http://www.w3.org/2000/svg" viewBox="0 0 200 240" width="200" height="240">
  <defs>
    <clipPath id="shirt">
      <path d="M40,50 L20,65 L5,100 L30,110 L40,85 L40,200 C40,210 50,220 60,220 L140,220 C150,220 160,210 160,200 L160,85 L170,110 L195,100 L180,65 L160,50 L130,35 C125,55 75,55 70,35 Z"/>
    </clipPath>
  </defs>
  <!-- base white shirt -->
  <path d="M40,50 L20,65 L5,100 L30,110 L40,85 L40,200 C40,210 50,220 60,220 L140,220 C150,220 160,210 160,200 L160,85 L170,110 L195,100 L180,65 L160,50 L130,35 C125,55 75,55 70,35 Z" fill="#FAFAFA" stroke="#333" stroke-width="1.5"/>
  <!-- subtle off-white vintage look collar -->
  <path d="M70,35 C75,55 125,55 130,35" fill="#E8E8E8" stroke="#333" stroke-width="1.5"/>
  <!-- minimal gold trim -->
  <rect x="5" y="96" width="35" height="4" fill="#D4AF37" clip-path="url(#shirt)"/>
  <rect x="160" y="96" width="35" height="4" fill="#D4AF37" clip-path="url(#shirt)"/>
  <!-- year text -->
  <text x="100" y="145" text-anchor="middle" font-family="Arial,sans-serif" font-size="22" font-weight="bold" fill="#333">1960</text>
</svg>